<svg viewBox="0 0 5200 1664" fill="none" xmlns="http://www.w3.org/2000/svg">
<g clip-path="url(#clip0_338_2109)">
<path d="M1194.91 995.436C1192.57 1002.61 1186.38 1007.81 1178.89 1008.96C1089.14 1022.22 999.491 1036.15 910.467 1051.13C898.403 1052.48 891.747 1060.9 892.267 1072.45C890.603 1099.33 899.027 1162.93 855.763 1153.46C824.563 1136.2 851.603 1089.04 831.895 1067.66C769.755 1072.5 706.679 1091.64 645.007 1103.86C-563.941 1349.14 442.623 1914.02 1027.31 1424.54C1837.57 733.304 1469.99 -461.241 370.031 261.352C351.467 269.672 323.179 257.66 336.335 235.04C612.611 -5.25242 1145.4 -121.056 1417.47 182.208C1605.34 408.46 1537.64 734.396 1441.33 986.492C1237.86 1458.65 681.355 1808.56 173.887 1604.72C-385.217 1282.84 560.039 1059.34 818.895 1023.72C831.115 1021.33 837.043 1014.1 836.887 1001.26C835.847 800.072 831.271 598.78 827.787 397.176C826.487 349.076 823.003 301.288 817.387 253.448C814.943 233.272 811.303 203.164 833.143 193.752C891.331 172.848 883.843 295.724 889.979 329.836C904.799 550.212 899.963 771.628 893.307 992.108C892.995 1004.33 900.171 1009.37 911.143 1007.55C998.451 993.824 1085.45 982.8 1172.91 969.488C1187.57 967.304 1199.43 981.344 1194.8 995.436H1194.91Z" fill="currentColor"/>
<path d="M1724.63 1059.5C1722.4 1110.62 1608.98 1136.72 1567.7 1129.28C1396.72 1082.69 1523.18 833.56 1663.17 939.692C1705.86 992.68 1632.85 1035.89 1582.93 1037.04C1564.32 1039.38 1553.03 1044.16 1568.94 1062.26C1626.25 1125.8 1727.86 1000.58 1724.63 1059.5ZM1564.84 972.868C1536.24 1009.74 1602.48 1003.29 1609.19 980.46C1609.04 958.36 1575.5 957.944 1564.84 972.868Z" fill="currentColor"/>
<path d="M2165.33 1045.67C2103.5 1071.25 2092.79 977.132 2047.39 960.648C2021.76 972.296 2004.96 1006.46 1990.14 1030.22C1974.85 1061.74 1916.72 1073.23 1902.47 1034.33C1899.04 1021.33 1896.59 987.012 1884.68 1004.22C1864.72 1032.56 1849.17 1075.36 1831.44 1107.29C1812.87 1139.94 1753.8 1139.68 1749.28 1097.15C1746.62 1074.53 1744.08 1052.06 1741.68 1029.65C1737.42 994.188 1733.21 957.424 1728.84 921.804C1726.81 900.484 1735.86 888.316 1756.04 885.3C1803.46 876.304 1798.31 931.944 1805.44 962.468C1805.54 982.8 1814.28 994.24 1825.25 977.756V976.924C1845.79 927.368 1922.23 891.02 1956.6 946.14C1960.03 952.692 1964.82 953.316 1971 947.96C2006.99 913.172 2072.25 891.02 2113.23 931.892C2134.39 954.356 2206.67 1024.04 2165.38 1045.51L2165.33 1045.67Z" fill="currentColor"/>
<path d="M2300.84 1080.04C2246.29 1137.03 2190.08 966.42 2197.26 921.076C2194.35 885.352 2255.81 867.62 2263.61 905.58C2268.71 957.632 2302.19 1075.15 2300.84 1080.04ZM2216.39 826.436C2171.26 829.764 2171.83 754.728 2208.54 741.416C2224.56 732.992 2254.3 735.54 2256.23 756.86C2261.63 799.292 2248.37 822.536 2216.34 826.436H2216.39Z" fill="currentColor"/>
<path d="M2786.42 1157.47C2682.58 1338.84 3187.18 1359.75 3020.63 1156.79C2888.55 999.076 2683.36 921.96 2532.87 785.928C2211.04 455.78 2773.32 99.5278 3084.54 94.3278C3460.39 70.9798 3518.42 440.024 3396.48 329.108C3258.48 -89.9601 2589.76 238.888 2503.9 535.236C2472.7 710.476 2649.76 813.904 2775.71 894.192C2871.13 954.512 2972.89 1022.89 3053.65 1101.88C3248.54 1304.63 3000.92 1376.08 2822.14 1325.69C2723.66 1303.85 2662.3 1209.99 2734.26 1123.25C2756.21 1092.05 2806.23 1125.07 2786.47 1157.47H2786.42Z" fill="currentColor"/>
<path d="M3430.96 879.32C3449.84 883.376 3436.78 905.892 3427.32 913.432C3380.1 958.1 3306.47 963.508 3247.76 940.264C3214.07 921.856 3153.49 1013.38 3109.86 1023.93C2963.27 1070.37 3011.06 937.56 3067.01 868.14C3102.11 824.668 3156.5 774.904 3218.12 782.6C3229.77 785.668 3249.06 791.336 3245.74 806.988C3243.08 814.424 3235.39 822.12 3227.07 822.016C3155.26 830.7 3110.33 908.284 3087.71 972.348C3147.56 943.436 3174.91 878.436 3241.68 874.848C3256.29 874.848 3270.54 880.828 3284.32 892.736C3332.68 943.072 3383.22 884.728 3430.96 879.32Z" fill="currentColor"/>
<path d="M4233.63 879.32C4252.51 883.376 4239.46 905.892 4229.99 913.432C4182.78 958.1 4109.14 963.508 4050.44 940.264C4016.74 921.856 3956.16 1013.38 3912.53 1023.93C3765.94 1070.37 3813.73 937.56 3869.68 868.14C3904.78 824.668 3959.18 774.904 4020.8 782.6C4032.44 785.668 4051.74 791.336 4048.41 806.988C4045.76 814.424 4038.06 822.12 4029.74 822.016C3957.93 830.7 3913 908.284 3890.38 972.348C3950.23 943.436 3977.58 878.436 4044.35 874.848C4058.96 874.848 4073.21 880.828 4086.99 892.736C4135.35 943.072 4185.9 884.728 4233.63 879.32Z" fill="currentColor"/>
<path d="M4532.01 943.28C4553.79 977.756 4511.1 982.852 4486.09 977.288C4452.24 973.752 4424.89 957.684 4404.03 928.928C4386.98 914.628 4367.48 855.192 4341.48 871.624C4288.65 900.588 4272.84 1003.65 4198.48 976.456C4166.76 952.432 4174.92 900.952 4168.01 865.54C4165.35 830.492 4218.08 823.732 4229.78 852.956C4233.47 862.368 4232.85 875.368 4243.98 880.568C4291.14 826.592 4381.47 787.8 4432.48 857.428C4466.8 907.972 4472.83 925.028 4532.06 943.228L4532.01 943.28Z" fill="currentColor"/>
<path d="M5025.64 861.848C4990.8 818.74 4914.78 965.952 4871.31 903.396C4836 807.248 4854.98 697.32 4850.61 596.7C4853.84 407.368 4871.26 216.528 4875.16 27.3517C4875.16 20.2797 4872.19 14.3517 4866.21 9.46373C4807.5 -24.1283 4793.62 37.8037 4786.08 98.0197C4779.22 152.776 4776.1 207.948 4776.04 263.12C4776.04 315.588 4776.04 381.524 4776.04 437.268C4776.04 522.236 4763.67 606.892 4737.67 687.752C4722.95 733.564 4706.16 776.048 4687.12 802.62C4564.35 736.892 4439.55 847.496 4478.34 977.704C4490.82 1023.46 4540.28 1038.44 4583.54 1032.98C4672.1 1015.77 4733.46 899.288 4778.44 777.296C4770.06 916.76 4840.84 1035.22 4981.03 932.256C5000.32 914.004 5042.91 891.696 5025.64 861.848ZM4597.79 964.288C4508.82 1072.92 4518.96 751.608 4669.29 847.288C4648.64 891.904 4629.51 928.616 4597.79 964.288Z" fill="currentColor"/>
<path d="M3802.55 945.88C3740.72 971.464 3730.01 877.344 3684.62 860.86C3658.98 872.508 3642.18 906.672 3627.36 930.436C3612.08 961.948 3553.94 973.44 3539.69 934.544C3536.26 921.544 3533.82 887.224 3521.91 904.436C3501.94 932.776 3486.39 975.572 3468.66 1007.5C3450.1 1040.16 3391.02 1039.9 3386.5 997.36C3383.85 974.74 3381.3 952.276 3378.91 929.864C3374.64 894.4 3370.43 857.636 3366.06 822.016C3364.04 800.696 3373.08 788.528 3393.26 785.512C3440.68 776.516 3435.54 832.156 3442.66 862.68C3442.76 883.012 3451.5 894.452 3462.47 877.968V877.136C3483.01 827.58 3559.45 791.232 3593.82 846.352C3597.26 852.904 3602.04 853.528 3608.23 848.172C3644.21 813.384 3709.47 791.232 3750.45 832.104C3771.61 854.568 3843.89 924.248 3802.6 945.724L3802.55 945.88Z" fill="currentColor"/>
<path d="M5199.95 946.763C5197.71 997.879 5084.3 1023.98 5043.01 1016.55C4872.04 969.955 4998.5 720.823 5138.48 826.955C5181.18 879.943 5108.17 923.155 5058.25 924.299C5039.63 926.639 5028.35 931.423 5044.26 949.519C5101.56 1013.06 5203.17 887.847 5199.95 946.763ZM5040.15 860.131C5011.55 896.999 5077.8 890.551 5084.51 867.723C5084.35 845.623 5050.81 845.207 5040.15 860.131Z" fill="currentColor"/>
</g>
<defs>
<clipPath id="clip0_338_2109">
<rect width="5200" height="1664" fill="currentColor"/>
</clipPath>
</defs>
</svg>
