<svg width="2651" height="1664" viewBox="0 0 2651 1664" fill="none" xmlns="http://www.w3.org/2000/svg">
<g clip-path="url(#clip0_156_20)">
<path d="M796.617 663.624C795.057 668.408 790.932 671.874 785.94 672.637C726.104 681.477 666.338 690.768 606.988 700.752C598.945 701.653 594.507 707.269 594.854 714.965C593.745 732.888 599.361 775.285 570.518 768.976C549.717 757.466 567.744 726.024 554.605 711.776C513.178 715 471.127 727.757 430.012 735.904C-375.966 899.426 295.087 1276.01 684.885 949.693C1225.07 488.869 980.007 -307.494 246.692 174.234C234.315 179.781 215.456 171.773 224.227 156.693C408.414 -3.50161 763.614 -80.7043 944.993 121.472C1070.25 272.306 1025.11 489.597 960.905 657.661C825.252 972.434 454.244 1205.71 115.927 1069.81C-256.815 855.226 373.365 706.229 545.939 682.482C554.085 680.888 558.038 676.069 557.934 667.506C557.24 533.381 554.189 399.186 551.867 264.784C551 232.717 548.677 200.858 544.933 168.965C543.304 155.514 540.877 135.442 555.438 129.168C594.23 115.232 589.238 197.149 593.329 219.89C603.209 366.808 599.985 514.418 595.547 661.405C595.339 669.552 600.123 672.914 607.438 671.701C665.644 662.549 723.643 655.2 781.953 646.325C791.729 644.869 799.633 654.229 796.548 663.624H796.617Z" fill="white"/>
<path d="M1149.77 706.334C1148.28 740.411 1072.67 757.814 1045.15 752.856C931.161 721.795 1015.47 555.707 1108.8 626.462C1137.26 661.787 1088.58 690.595 1055.3 691.358C1042.89 692.918 1035.37 696.107 1045.98 708.171C1084.18 750.534 1151.92 667.056 1149.77 706.334ZM1043.24 648.579C1024.17 673.158 1068.34 668.859 1072.81 653.64C1072.71 638.907 1050.35 638.63 1043.24 648.579Z" fill="white"/>
<path d="M1443.58 697.111C1402.36 714.167 1395.22 651.42 1364.95 640.431C1347.86 648.196 1336.66 670.972 1326.78 686.815C1316.59 707.823 1277.83 715.484 1268.33 689.553C1266.05 680.887 1264.42 658.007 1256.48 669.481C1243.17 688.375 1232.8 716.905 1220.98 738.191C1208.6 759.961 1169.22 759.788 1166.2 731.431C1164.44 716.351 1162.74 701.375 1161.14 686.433C1158.3 662.791 1155.49 638.281 1152.58 614.535C1151.23 600.321 1157.26 592.209 1170.71 590.199C1202.33 584.201 1198.9 621.295 1203.64 641.644C1203.71 655.199 1209.54 662.825 1216.85 651.836V651.281C1230.55 618.244 1281.51 594.012 1304.42 630.759C1306.71 635.127 1309.9 635.543 1314.03 631.972C1338.01 608.78 1381.52 594.012 1408.84 621.26C1422.95 636.236 1471.14 682.689 1443.61 697.007L1443.58 697.111Z" fill="white"/>
<path d="M1533.92 720.026C1497.55 758.02 1460.08 644.279 1464.86 614.05C1462.92 590.234 1503.9 578.412 1509.1 603.719C1512.49 638.42 1534.82 716.767 1533.92 720.026ZM1477.62 550.956C1447.53 553.175 1447.91 503.151 1472.38 494.276C1483.06 488.66 1502.89 490.359 1504.17 504.572C1507.78 532.86 1498.94 548.356 1477.58 550.956H1477.62Z" fill="white"/>
<path d="M1041.89 1541.49C972.657 1662.4 1309.07 1676.34 1198.03 1541.04C1109.97 1435.89 973.177 1384.48 872.85 1293.79C658.295 1073.69 1033.15 836.193 1240.63 832.726C1491.21 817.161 1529.9 1063.19 1448.6 989.246C1356.6 709.868 910.776 929.1 853.541 1126.67C832.74 1243.49 950.782 1312.44 1034.75 1365.97C1098.36 1406.18 1166.2 1451.77 1220.04 1504.43C1349.97 1639.59 1184.89 1687.23 1065.7 1653.63C1000.04 1639.07 959.137 1576.5 1007.12 1518.68C1021.75 1497.88 1055.1 1519.89 1041.92 1541.49H1041.89Z" fill="white"/>
<path d="M1471.62 1356.02C1484.21 1358.72 1475.5 1373.74 1469.2 1378.76C1437.72 1408.54 1388.63 1412.15 1349.49 1396.65C1327.03 1384.38 1286.64 1445.39 1257.55 1452.43C1159.83 1483.39 1191.68 1394.85 1228.99 1348.57C1252.39 1319.59 1288.65 1286.41 1329.73 1291.54C1337.49 1293.59 1350.36 1297.36 1348.14 1307.8C1346.37 1312.76 1341.24 1317.89 1335.69 1317.82C1287.82 1323.61 1257.86 1375.33 1242.78 1418.04C1282.69 1398.76 1300.92 1355.43 1345.43 1353.04C1355.17 1353.04 1364.67 1357.03 1373.86 1364.96C1406.1 1398.52 1439.8 1359.63 1471.62 1356.02Z" fill="white"/>
<path d="M2006.71 1356.02C2019.29 1358.72 2010.59 1373.74 2004.28 1378.76C1972.81 1408.54 1923.72 1412.15 1884.58 1396.65C1862.11 1384.38 1821.73 1445.39 1792.64 1452.43C1694.91 1483.39 1726.77 1394.85 1764.07 1348.57C1787.47 1319.59 1823.74 1286.41 1864.82 1291.54C1872.58 1293.59 1885.44 1297.36 1883.23 1307.8C1881.46 1312.76 1876.33 1317.89 1870.78 1317.82C1822.9 1323.61 1792.95 1375.33 1777.87 1418.04C1817.77 1398.76 1836.01 1355.43 1880.52 1353.04C1890.26 1353.04 1899.76 1357.03 1908.95 1364.96C1941.19 1398.52 1974.89 1359.63 2006.71 1356.02Z" fill="white"/>
<path d="M2205.67 1398.7C2220.19 1421.68 2191.73 1425.08 2175.05 1421.37C2152.49 1419.01 2134.25 1408.3 2120.35 1389.13C2108.98 1379.59 2095.98 1339.97 2078.64 1350.92C2043.42 1370.23 2032.88 1438.94 1983.31 1420.81C1962.16 1404.8 1967.61 1370.48 1963 1346.87C1961.23 1323.5 1996.38 1319 2004.18 1338.48C2006.64 1344.75 2006.23 1353.42 2013.64 1356.89C2045.09 1320.9 2105.3 1295.04 2139.31 1341.46C2162.19 1375.16 2166.21 1386.53 2205.7 1398.66L2205.67 1398.7Z" fill="white"/>
<path d="M2534.76 1344.41C2511.53 1315.67 2460.85 1413.81 2431.87 1372.11C2408.33 1308.01 2420.98 1234.72 2418.07 1167.64C2420.22 1041.42 2431.83 914.194 2434.43 788.076C2434.43 783.362 2432.46 779.41 2428.47 776.151C2389.33 753.756 2380.08 795.044 2375.05 835.188C2370.47 871.692 2368.39 908.474 2368.36 945.255C2368.32 982.036 2368.36 1024.19 2368.36 1061.35C2368.36 1118 2360.11 1174.44 2342.77 1228.34C2332.96 1258.88 2321.77 1287.21 2309.08 1304.92C2227.23 1261.1 2144.03 1334.84 2169.89 1421.64C2178.21 1452.15 2211.18 1462.13 2240.02 1458.49C2299.06 1447.02 2339.97 1369.37 2369.95 1288.04C2364.37 1381.01 2411.55 1459.99 2505.02 1391.35C2517.88 1379.18 2546.27 1364.31 2534.76 1344.41ZM2249.52 1412.7C2190.2 1485.12 2196.96 1270.91 2297.19 1334.7C2283.42 1364.44 2270.67 1388.92 2249.52 1412.7Z" fill="white"/>
<path d="M1719.35 1400.39C1678.13 1417.45 1670.99 1354.7 1640.73 1343.71C1623.64 1351.48 1612.44 1374.26 1602.56 1390.1C1592.37 1411.11 1553.61 1418.77 1544.11 1392.84C1541.82 1384.17 1540.19 1361.29 1532.26 1372.76C1518.94 1391.66 1508.58 1420.19 1496.76 1441.47C1484.38 1463.24 1445 1463.07 1441.98 1434.71C1440.21 1419.63 1438.52 1404.66 1436.92 1389.72C1434.08 1366.07 1431.27 1341.56 1428.36 1317.82C1427.01 1303.6 1433.04 1295.49 1446.49 1293.48C1478.1 1287.48 1474.67 1324.58 1479.42 1344.93C1479.49 1358.48 1485.32 1366.11 1492.63 1355.12V1354.56C1506.32 1321.53 1557.28 1297.3 1580.2 1334.04C1582.49 1338.41 1585.68 1338.83 1589.8 1335.26C1613.79 1312.06 1657.3 1297.3 1684.62 1324.54C1698.73 1339.52 1746.91 1385.97 1719.39 1400.29L1719.35 1400.39Z" fill="white"/>
<path d="M2650.93 1401.02C2649.44 1435.09 2573.83 1452.5 2546.31 1447.54C2432.32 1416.48 2516.63 1250.39 2609.95 1321.15C2638.42 1356.47 2589.74 1385.28 2556.46 1386.04C2544.05 1387.6 2536.53 1390.79 2547.14 1402.85C2585.34 1445.22 2653.08 1361.74 2650.93 1401.02ZM2544.4 1343.23C2525.33 1367.81 2569.5 1363.51 2573.97 1348.29C2573.87 1333.56 2551.51 1333.28 2544.4 1343.23Z" fill="white"/>
</g>
<defs>
<clipPath id="clip0_156_20">
<rect width="2651" height="1664" fill="white"/>
</clipPath>
</defs>
</svg>
