<svg width="193" height="62" viewBox="0 0 193 62" fill="none" xmlns="http://www.w3.org/2000/svg">
<g clip-path="url(#clip0_238_5)">
<path d="M44.3435 36.9455C44.2566 37.2118 44.0269 37.4048 43.749 37.4473C40.4178 37.9394 37.0905 38.4567 33.7864 39.0125C33.3386 39.0627 33.0916 39.3754 33.1109 39.8038C33.0491 40.8016 33.3618 43.162 31.756 42.8108C30.598 42.17 31.6016 40.4195 30.8701 39.6263C28.5638 39.8058 26.2227 40.516 23.9337 40.9695C-20.9369 50.0734 16.4222 71.0389 38.1231 52.8719C68.1963 27.2164 54.5532 -17.1196 13.7279 9.69968C13.0389 10.0085 11.9889 9.56265 12.4772 8.7231C22.7313 -0.195428 42.5061 -4.49354 52.6039 6.76222C59.577 15.1597 57.0641 27.2569 53.4897 36.6135C45.9376 54.1379 25.2828 67.1249 6.44792 59.5593C-14.3034 47.6126 20.7801 39.3175 30.3876 37.9954C30.8412 37.9066 31.0612 37.6384 31.0554 37.1617C31.0168 29.6945 30.847 22.2235 30.7177 14.7408C30.6694 12.9556 30.5401 11.1819 30.3317 9.40632C30.241 8.65748 30.1059 7.54001 30.9165 7.19068C33.0761 6.41482 32.7982 10.9754 33.0259 12.2415C33.576 20.4208 33.3965 28.6388 33.1495 36.822C33.1379 37.2755 33.4042 37.4627 33.8115 37.3952C37.0519 36.8857 40.2808 36.4765 43.5271 35.9824C44.0713 35.9014 44.5114 36.4225 44.3396 36.9455H44.3435Z" fill="white"/>
<path d="M64.0046 39.3233C63.9216 41.2205 59.7122 42.1894 58.1798 41.9134C51.834 40.1841 56.5277 30.9375 61.7233 34.8766C63.3078 36.8433 60.5981 38.4471 58.7453 38.4896C58.0544 38.5764 57.6356 38.754 58.2261 39.4256C60.353 41.7841 64.1242 37.1367 64.0046 39.3233ZM58.0737 36.108C57.0122 37.4763 59.471 37.237 59.72 36.3897C59.7142 35.5695 58.4693 35.5541 58.0737 36.108Z" fill="white"/>
<path d="M80.3611 38.8099C78.0664 39.7595 77.6688 36.2662 75.9839 35.6544C75.0324 36.0867 74.409 37.3547 73.859 38.2367C73.2916 39.4063 71.1338 39.8328 70.605 38.3892C70.4776 37.9067 70.3869 36.6329 69.9449 37.2717C69.2038 38.3235 68.6267 39.9119 67.9686 41.097C67.2796 42.309 65.0871 42.2993 64.9192 40.7206C64.8208 39.8811 64.7262 39.0473 64.6374 38.2155C64.4792 36.8992 64.3228 35.5347 64.1607 34.2126C64.0855 33.4213 64.4213 32.9697 65.1701 32.8578C66.9303 32.5239 66.7392 34.589 67.0036 35.7219C67.0075 36.4765 67.3317 36.9011 67.7389 36.2893V36.2584C68.5013 34.4192 71.3384 33.0701 72.6141 35.1159C72.7415 35.3591 72.9191 35.3822 73.1487 35.1834C74.4843 33.8923 76.9064 33.0701 78.4273 34.5871C79.2128 35.4208 81.8955 38.007 80.3631 38.8041L80.3611 38.8099Z" fill="white"/>
<path d="M85.3912 40.0855C83.3666 42.2008 81.2803 35.8685 81.5466 34.1855C81.4386 32.8596 83.7198 32.2015 84.0093 33.6104C84.1985 35.5423 85.4414 39.9041 85.3912 40.0855ZM82.2569 30.6729C80.5816 30.7965 80.6029 28.0115 81.9655 27.5174C82.5599 27.2047 83.6639 27.2993 83.7353 28.0906C83.936 29.6655 83.4438 30.5282 82.255 30.6729H82.2569Z" fill="white"/>
<path d="M103.414 42.9599C99.5603 49.6917 118.289 50.4676 112.107 42.9348C107.205 37.0811 99.5892 34.2189 94.0038 29.1701C82.059 16.9165 102.928 3.69406 114.479 3.50106C128.429 2.63449 130.583 16.3317 126.057 12.215C120.935 -3.33886 96.1152 8.86646 92.9288 19.8655C91.7708 26.3696 98.3425 30.2084 103.017 33.1883C106.558 35.4271 110.335 37.9651 113.333 40.8967C120.566 48.4218 111.376 51.0736 104.74 49.2035C101.085 48.3929 98.8076 44.9092 101.479 41.69C102.293 40.532 104.15 41.7575 103.416 42.9599H103.414Z" fill="white"/>
<path d="M127.336 32.6362C128.037 32.7867 127.552 33.6224 127.201 33.9022C125.449 35.5601 122.716 35.7608 120.537 34.8981C119.286 34.2149 117.038 37.6117 115.418 38.0035C109.978 39.727 111.751 34.7978 113.828 32.2212C115.131 30.6077 117.15 28.7607 119.437 29.0464C119.869 29.1602 120.585 29.3706 120.461 29.9515C120.363 30.2275 120.077 30.5132 119.769 30.5093C117.103 30.8316 115.436 33.7112 114.596 36.0889C116.818 35.0158 117.833 32.6033 120.311 32.4702C120.853 32.4702 121.382 32.6921 121.893 33.1341C123.688 35.0023 125.564 32.8369 127.336 32.6362Z" fill="white"/>
<path d="M157.128 32.6362C157.829 32.7867 157.344 33.6224 156.993 33.9022C155.241 35.5601 152.508 35.7608 150.329 34.8981C149.078 34.2149 146.83 37.6117 145.21 38.0035C139.77 39.727 141.543 34.7978 143.62 32.2212C144.923 30.6077 146.941 28.7607 149.229 29.0464C149.661 29.1602 150.377 29.3706 150.253 29.9515C150.155 30.2275 149.869 30.5132 149.561 30.5093C146.895 30.8316 145.228 33.7112 144.388 36.0889C146.61 35.0158 147.625 32.6033 150.103 32.4702C150.645 32.4702 151.174 32.6921 151.685 33.1341C153.48 35.0023 155.356 32.8369 157.128 32.6362Z" fill="white"/>
<path d="M168.202 35.01C169.011 36.2896 167.426 36.4787 166.498 36.2722C165.241 36.141 164.226 35.5446 163.452 34.4773C162.819 33.9466 162.096 31.7406 161.131 32.3505C159.17 33.4255 158.583 37.2507 155.823 36.2414C154.646 35.3497 154.949 33.439 154.692 32.1247C154.594 30.8238 156.551 30.5729 156.985 31.6576C157.122 32.0069 157.099 32.4894 157.512 32.6824C159.262 30.6791 162.615 29.2393 164.508 31.8236C165.782 33.6995 166.006 34.3326 168.204 35.0081L168.202 35.01Z" fill="white"/>
<path d="M186.525 31.9876C185.232 30.3876 182.41 35.8514 180.797 33.5296C179.486 29.9611 180.191 25.8811 180.029 22.1465C180.148 15.1194 180.795 8.03627 180.94 1.01493C180.94 0.752454 180.83 0.532434 180.608 0.351014C178.429 -0.895766 177.913 1.40286 177.633 3.6378C177.379 5.67009 177.263 7.71782 177.261 9.76555C177.261 11.7129 177.261 14.1602 177.261 16.2291C177.261 19.3827 176.802 22.5248 175.837 25.5259C175.29 27.2263 174.667 28.8031 173.961 29.7893C169.404 27.3498 164.772 31.4549 166.212 36.2876C166.675 37.986 168.51 38.5419 170.116 38.3392C173.403 37.7004 175.68 33.3772 177.35 28.8494C177.039 34.0257 179.666 38.4222 184.869 34.6008C185.585 33.9234 187.166 33.0954 186.525 31.9876ZM170.645 35.7897C167.343 39.8214 167.719 27.896 173.299 31.4472C172.532 33.1031 171.822 34.4657 170.645 35.7897Z" fill="white"/>
<path d="M141.129 35.1063C138.834 36.0559 138.436 32.5626 136.751 31.9508C135.8 32.3831 135.177 33.6511 134.627 34.5331C134.059 35.7027 131.901 36.1293 131.373 34.6856C131.245 34.2031 131.154 32.9293 130.713 33.5681C129.971 34.62 129.394 36.2084 128.736 37.3934C128.047 38.6054 125.855 38.5958 125.687 37.0171C125.588 36.1775 125.494 35.3437 125.405 34.5119C125.247 33.1957 125.09 31.8311 124.928 30.5091C124.853 29.7178 125.189 29.2662 125.938 29.1542C127.698 28.8203 127.507 30.8854 127.771 32.0183C127.775 32.773 128.099 33.1976 128.507 32.5858V32.5549C129.269 30.7156 132.106 29.3665 133.382 31.4123C133.509 31.6555 133.687 31.6787 133.916 31.4799C135.252 30.1887 137.674 29.3665 139.195 30.8835C139.98 31.7173 142.663 34.3035 141.131 35.1006L141.129 35.1063Z" fill="white"/>
<path d="M192.994 35.1394C192.911 37.0366 188.702 38.0054 187.169 37.7295C180.823 36.0002 185.517 26.7535 190.713 30.6927C192.297 32.6593 189.587 34.2632 187.735 34.3056C187.044 34.3925 186.625 34.57 187.215 35.2417C189.342 37.6001 193.113 32.9527 192.994 35.1394ZM187.063 31.924C186.001 33.2924 188.46 33.0531 188.709 32.2058C188.703 31.3855 187.459 31.3701 187.063 31.924Z" fill="white"/>
</g>
<defs>
<clipPath id="clip0_238_5">
<rect width="193" height="61.76" fill="white"/>
</clipPath>
</defs>
</svg>
